<svg xmlns="http://www.w3.org/2000/svg" viewBox="0 0 480 360"><defs><linearGradient id="body" x2=".8" y2="1"><stop stop-color="#424a55"/><stop offset="1" stop-color="#171c24"/></linearGradient><linearGradient id="screen" x2="1" y2="1"><stop stop-color="#e6a54d"/><stop offset=".5" stop-color="#785737"/><stop offset="1" stop-color="#283443"/></linearGradient><linearGradient id="paper" x2="1" y2="1"><stop stop-color="#ece5d6"/><stop offset="1" stop-color="#9fa5a8"/></linearGradient><filter id="shadow"><feDropShadow dx="0" dy="18" stdDeviation="14" flood-opacity=".35"/></filter></defs><ellipse cx="240" cy="317" rx="155" ry="17" fill="#070c13" opacity=".3"/><g filter="url(#shadow)"><path d="M134 192v-43a106 106 0 0 1 212 0v44" fill="none" stroke="#151a22" stroke-width="28"/><path d="M139 144a102 102 0 0 1 202 0" fill="none" stroke="#747d88" stroke-width="8"/><path d="M141 145a99 99 0 0 1 198 0" fill="none" stroke="#e2a855" stroke-width="3"/><rect x="112" y="166" width="66" height="113" rx="29" fill="url(#body)" stroke="#68727d" stroke-width="3" transform="rotate(-10 145 222)"/><rect x="302" y="166" width="66" height="113" rx="29" fill="url(#body)" stroke="#68727d" stroke-width="3" transform="rotate(10 335 222)"/><rect x="149" y="179" width="26" height="84" rx="12" fill="#11161d"/><rect x="305" y="179" width="26" height="84" rx="12" fill="#11161d"/><path d="M330 275q-5 45-70 35" fill="none" stroke="#626c77" stroke-width="9"/><rect x="235" y="300" width="40" height="17" rx="8" fill="#d9a04e"/></g></svg>